<svg width="24" height="24" viewBox="0 0 24 24" fill="none" xmlns="http://www.w3.org/2000/svg">
<path d="M2 12C2 10.6167 2.26267 9.31667 2.788 8.1C3.31333 6.88333 4.02567 5.825 4.925 4.925C5.825 4.025 6.88333 3.31267 8.1 2.788C9.31667 2.26333 10.6167 2.00067 12 2C14.2667 2 16.275 2.66267 18.025 3.988C19.775 5.31333 20.9583 7.009 21.575 9.075C21.6583 9.30833 21.6127 9.525 21.438 9.725C21.2633 9.925 21.0423 10.025 20.775 10.025C20.4917 10.025 20.2293 9.95 19.988 9.8C19.7467 9.65 19.5757 9.44167 19.475 9.175C19.0917 8.14167 18.5127 7.225 17.738 6.425C16.9633 5.625 16.0507 5.01667 15 4.6V5C15 5.55 14.8043 6.021 14.413 6.413C14.0217 6.805 13.5507 7.00067 13 7H11V9C11 9.28333 10.904 9.521 10.712 9.713C10.52 9.905 10.2827 10.0007 10 10H8V12H9C9.28333 12 9.521 12.096 9.713 12.288C9.905 12.48 10.0007 12.7173 10 13V15H9L4.2 10.2C4.15 10.5 4.10433 10.8 4.063 11.1C4.02167 11.4 4.00067 11.7 4 12C4 14.0333 4.671 15.8083 6.013 17.325C7.355 18.8417 9.04233 19.7167 11.075 19.95C11.3417 19.9833 11.5627 20.096 11.738 20.288C11.9133 20.48 12.0007 20.7173 12 21C12 21.2833 11.904 21.521 11.712 21.713C11.52 21.905 11.291 21.984 11.025 21.95C8.475 21.7 6.33333 20.6333 4.6 18.75C2.86667 16.8667 2 14.6167 2 12ZM20.4 20.8L17.9 18.3C17.55 18.5 17.175 18.6667 16.775 18.8C16.375 18.9333 15.95 19 15.5 19C14.25 19 13.1877 18.5627 12.313 17.688C11.4383 16.8133 11.0007 15.7507 11 14.5C11 13.25 11.4377 12.1877 12.313 11.313C13.1883 10.4383 14.2507 10.0007 15.5 10C16.75 10 17.8127 10.4377 18.688 11.313C19.5633 12.1883 20.0007 13.2507 20 14.5C20 14.95 19.9333 15.375 19.8 15.775C19.6667 16.175 19.5 16.55 19.3 16.9L21.8 19.4C21.9833 19.5833 22.075 19.8167 22.075 20.1C22.075 20.3833 21.9833 20.6167 21.8 20.8C21.6167 20.9833 21.3833 21.075 21.1 21.075C20.8167 21.075 20.5833 20.9833 20.4 20.8ZM15.5 17C16.2 17 16.7917 16.7583 17.275 16.275C17.7583 15.7917 18 15.2 18 14.5C18 13.8 17.7583 13.2083 17.275 12.725C16.7917 12.2417 16.2 12 15.5 12C14.8 12 14.2083 12.2417 13.725 12.725C13.2417 13.2083 13 13.8 13 14.5C13 15.2 13.2417 15.7917 13.725 16.275C14.2083 16.7583 14.8 17 15.5 17Z" fill="#207FBF"/>
</svg>
